<svg width="178" height="48" viewBox="0 0 178 48" fill="none" xmlns="http://www.w3.org/2000/svg">
<path opacity="0.75" d="M7 7.03906C16.3571 7.03906 23.955 14.6397 23.955 24.0001C14.5979 24.0001 7 16.3994 7 7.03906ZM23.9924 24.0001C23.9924 33.3604 31.5904 40.9611 40.9474 40.9611C40.9474 31.6007 33.3495 24.0001 23.9924 24.0001Z" fill="#002872"/>
<path opacity="0.75" d="M0 24C6.6248 17.3729 17.3667 17.3729 23.9915 24C17.3667 30.6272 6.6248 30.6272 0 24ZM23.9915 24C30.6163 30.6272 41.3582 30.6272 47.983 24C41.3208 17.3729 30.6163 17.3729 23.9915 24Z" fill="#0451DD"/>
<path opacity="0.75" d="M23.992 48C17.3672 41.3729 17.3672 30.6271 23.992 24C30.6168 30.6271 30.6168 41.3729 23.992 48ZM23.992 24C30.6168 17.3729 30.6168 6.62714 23.992 0C17.3672 6.62714 17.3672 17.3729 23.992 24Z" fill="#AAC5F7"/>
<path opacity="0.75" d="M7 40.9611C7 31.6007 14.5979 24.0001 23.955 24.0001C23.9924 33.3604 16.3945 40.9611 7 40.9611ZM23.9924 24.0001C33.3495 24.0001 40.9474 16.3994 40.9474 7.03906C31.5529 7.03906 23.9924 14.6022 23.9924 24.0001Z" fill="#85A4DD"/>
<path opacity="0.75" d="M7 7.03906C16.3571 7.03906 23.955 14.6397 23.955 24.0001C14.5979 24.0001 7 16.3994 7 7.03906ZM23.9924 24.0001C23.9924 33.3604 31.5904 40.9611 40.9474 40.9611C40.9474 31.6007 33.3495 24.0001 23.9924 24.0001Z" fill="#5893FF"/>
<path opacity="0.75" d="M0 24C6.6248 17.3729 17.3667 17.3729 23.9915 24C17.3667 30.6272 6.6248 30.6272 0 24ZM23.9915 24C30.6163 30.6272 41.3582 30.6272 47.983 24C41.3208 17.3729 30.6163 17.3729 23.9915 24Z" fill="#033CA5"/>
<path opacity="0.75" d="M23.992 48C17.3672 41.3729 17.3672 30.6271 23.992 24C30.6168 30.6271 30.6168 41.3729 23.992 48ZM23.992 24C30.6168 17.3729 30.6168 6.62714 23.992 0C17.3672 6.62714 17.3672 17.3729 23.992 24Z" fill="#79A9FF"/>
<path opacity="0.75" d="M7 40.9611C7 31.6007 14.5979 24.0001 23.955 24.0001C23.9924 33.3604 16.3945 40.9611 7 40.9611ZM23.9924 24.0001C33.3495 24.0001 40.9474 16.3994 40.9474 7.03906C31.5529 7.03906 23.9924 14.6022 23.9924 24.0001Z" fill="#3A80FF"/>
<path d="M72.2384 37H67.5984L66.2544 32.968H58.1584L56.7824 37H52.1424L60.4304 14.216H63.9184L72.2384 37ZM65.0704 29.224L62.2864 20.936L59.4064 29.224H65.0704ZM88.4207 29.96H77.9887C77.9887 31.0693 78.3087 31.9653 78.9487 32.648C79.5887 33.3307 80.4847 33.672 81.6367 33.672C82.49 33.672 83.1833 33.5547 83.7167 33.32C84.2713 33.064 84.8367 32.6587 85.4127 32.104L87.9407 34.568C87.0447 35.4853 86.1167 36.1573 85.1567 36.584C84.218 36.9893 83.034 37.192 81.6047 37.192C80.538 37.192 79.5673 37.064 78.6927 36.808C77.8393 36.5307 77.0393 36.0827 76.2927 35.464C75.546 34.8453 74.9593 33.96 74.5327 32.808C74.106 31.656 73.8927 30.2693 73.8927 28.648C73.8927 25.9813 74.554 23.9013 75.8767 22.408C77.1993 20.8933 78.9593 20.136 81.1567 20.136C83.4393 20.136 85.2207 20.8827 86.5007 22.376C87.7807 23.848 88.4207 25.7893 88.4207 28.2V29.96ZM84.3247 27.112C84.3033 26.3867 84.1753 25.7893 83.9407 25.32C83.4287 24.168 82.5007 23.592 81.1567 23.592C79.8127 23.592 78.8847 24.168 78.3727 25.32C78.138 25.7893 78.01 26.3867 77.9887 27.112H84.3247ZM104.448 21.704L101.312 24.872C100.651 24.2107 99.9146 23.88 99.1039 23.88C98.3999 23.88 97.7706 24.1467 97.2159 24.68C96.6826 25.2133 96.4159 25.9707 96.4159 26.952V37H92.2559V20.328H96.3199V21.928C96.7466 21.416 97.3333 20.9893 98.0799 20.648C98.8479 20.3067 99.6586 20.136 100.512 20.136C102.091 20.136 103.403 20.6587 104.448 21.704ZM119.258 28.648C119.258 30.248 119.119 31.5493 118.842 32.552C118.586 33.5333 118.095 34.3973 117.37 35.144C116.047 36.5093 114.319 37.192 112.186 37.192C110.074 37.192 108.356 36.5093 107.034 35.144C106.308 34.376 105.807 33.5013 105.53 32.52C105.274 31.5173 105.146 30.2267 105.146 28.648C105.146 27.0693 105.274 25.7893 105.53 24.808C105.807 23.8267 106.308 22.952 107.034 22.184C108.356 20.8187 110.074 20.136 112.186 20.136C114.362 20.136 116.09 20.8187 117.37 22.184C118.095 22.952 118.586 23.8267 118.842 24.808C119.119 25.7893 119.258 27.0693 119.258 28.648ZM115.098 28.648C115.098 26.5787 114.778 25.2347 114.138 24.616C113.647 24.1253 112.996 23.88 112.186 23.88C111.396 23.88 110.756 24.1253 110.266 24.616C109.626 25.2347 109.306 26.5787 109.306 28.648C109.306 30.7387 109.626 32.0933 110.266 32.712C110.756 33.2027 111.396 33.448 112.186 33.448C112.996 33.448 113.647 33.2027 114.138 32.712C114.778 32.0933 115.098 30.7387 115.098 28.648Z" fill="#134CB5"/>
<path d="M140.985 37H137.017L127.993 23.016V37H123.545V14.216H127.513L136.537 28.168V14.216H140.985V37ZM159.671 29.96H149.239C149.239 31.0693 149.559 31.9653 150.199 32.648C150.839 33.3307 151.735 33.672 152.887 33.672C153.74 33.672 154.433 33.5547 154.967 33.32C155.521 33.064 156.087 32.6587 156.663 32.104L159.191 34.568C158.295 35.4853 157.367 36.1573 156.407 36.584C155.468 36.9893 154.284 37.192 152.855 37.192C151.788 37.192 150.817 37.064 149.943 36.808C149.089 36.5307 148.289 36.0827 147.543 35.464C146.796 34.8453 146.209 33.96 145.783 32.808C145.356 31.656 145.143 30.2693 145.143 28.648C145.143 25.9813 145.804 23.9013 147.127 22.408C148.449 20.8933 150.209 20.136 152.407 20.136C154.689 20.136 156.471 20.8827 157.751 22.376C159.031 23.848 159.671 25.7893 159.671 28.2V29.96ZM155.575 27.112C155.553 26.3867 155.425 25.7893 155.191 25.32C154.679 24.168 153.751 23.592 152.407 23.592C151.063 23.592 150.135 24.168 149.623 25.32C149.388 25.7893 149.26 26.3867 149.239 27.112H155.575ZM177.025 37H172.033L168.961 32.008L165.921 37H160.929L166.689 28.488L161.153 20.328H166.145L168.961 25.096L171.809 20.328H176.801L171.265 28.488L177.025 37Z" fill="#558FF9"/>
</svg>
